<svg width="134" height="134" viewBox="0 0 134 134" fill="none" xmlns="http://www.w3.org/2000/svg">
<g clip-path="url(#clip0_2018_91288)">
<rect width="134" height="134" rx="17.4783" fill="#AC4BFF"/>
<path d="M23.1358 42.8143L24.5654 43.1254L25.5082 42.0065C33.8588 32.0963 46.5157 25.7319 60.7038 25.7319C85.8901 25.7319 106.257 45.7459 106.257 70.2815C106.257 78.3589 104.07 85.8565 100.278 92.3754L99.6327 93.4842L100.185 94.6419C103.859 102.338 105.813 110.508 105.813 118.999C105.813 140.783 92.7182 160.778 70.9649 175.435C49.2259 190.083 19.0583 199.216 -14.3774 199.216C-47.8132 199.216 -77.9808 190.083 -99.7198 175.435C-121.473 160.778 -134.568 140.783 -134.568 118.999C-134.568 110.508 -132.614 102.338 -128.94 94.6419L-128.388 93.4842L-129.033 92.3754C-132.825 85.8565 -135.012 78.3589 -135.012 70.2815C-135.012 45.7459 -114.645 25.7319 -89.4586 25.7319C-75.3639 25.7319 -62.7007 32.0933 -54.2553 42.0157L-53.3049 43.1324L-51.8743 42.8107C-40.0637 40.1554 -27.4479 38.7811 -14.3774 38.7811C-1.31822 38.7811 11.3037 40.24 23.1358 42.8143ZM-173.235 226.872C-170.976 225.983 -170.976 225.983 -170.977 225.983L-170.978 225.979L-170.984 225.963L-171.011 225.896C-171.034 225.836 -171.069 225.746 -171.115 225.627C-171.207 225.389 -171.344 225.034 -171.52 224.572C-171.872 223.647 -172.381 222.292 -173.007 220.579C-174.259 217.153 -175.978 212.297 -177.842 206.586C-181.576 195.144 -185.865 180.349 -188.169 166.766C-189.321 159.972 -189.962 153.557 -189.812 148.057C-189.66 142.502 -188.706 138.167 -186.92 135.303C-185.251 132.629 -182.78 131.091 -178.878 131.14C-174.762 131.191 -168.993 133.027 -161.133 137.623L-161.133 137.623C-114.03 165.157 -103.283 210.936 -100.743 232.201C-100.212 236.765 -103.966 240.973 -108.906 240.973H-183.987C-186.74 240.973 -187.392 237.669 -185.279 236.466C-185.278 236.465 -185.277 236.465 -185.276 236.464L-172.041 228.985L-170.204 227.947L-170.976 225.983L-173.235 226.872ZM140.124 226.872L137.837 226.059L137.183 227.898L138.84 228.932L150.824 236.407C150.826 236.408 150.828 236.409 150.83 236.41C151.778 237.012 152.135 238.109 151.853 239.232C151.569 240.364 150.8 240.973 149.898 240.973H82.0142C77.9732 240.973 74.4245 237.038 74.9218 232.165C77.118 210.924 86.9344 165.058 129.361 137.565C136.46 132.973 141.602 131.189 145.201 131.14C146.95 131.115 148.306 131.5 149.387 132.148C150.476 132.801 151.422 133.803 152.217 135.212C153.847 138.1 154.717 142.472 154.857 148.051C154.995 153.572 154.415 160.003 153.374 166.805C151.294 180.403 147.416 195.208 144.042 206.652C142.358 212.366 140.804 217.224 139.673 220.652C139.107 222.365 138.647 223.721 138.329 224.646C138.169 225.109 138.046 225.464 137.963 225.702C137.921 225.821 137.889 225.912 137.868 225.971L137.844 226.038L137.839 226.054L137.837 226.058C137.837 226.059 137.837 226.059 140.124 226.872ZM-66.3741 67.6719C-66.3741 82.1382 -78.3664 93.9526 -93.2682 93.9526C-108.17 93.9526 -120.162 82.1382 -120.162 67.6719C-120.162 53.2055 -108.17 41.3911 -93.2682 41.3911C-78.3664 41.3911 -66.3741 53.2055 -66.3741 67.6719ZM-93.2682 98.8077C-75.7823 98.8077 -61.519 84.9158 -61.519 67.6719C-61.519 50.4279 -75.7823 36.536 -93.2682 36.536C-110.754 36.536 -125.017 50.4279 -125.017 67.6719C-125.017 84.9158 -110.754 98.8077 -93.2682 98.8077ZM89.9975 67.6719C89.9975 82.1382 78.0052 93.9526 63.1033 93.9526C48.2015 93.9526 36.2092 82.1382 36.2092 67.6719C36.2092 53.2055 48.2015 41.3911 63.1033 41.3911C78.0052 41.3911 89.9975 53.2055 89.9975 67.6719ZM63.1033 98.8077C80.5893 98.8077 94.8525 84.9158 94.8525 67.6719C94.8525 50.4279 80.5893 36.536 63.1033 36.536C45.6174 36.536 31.3541 50.4279 31.3541 67.6719C31.3541 84.9158 45.6174 98.8077 63.1033 98.8077ZM-90.3778 67.6717C-90.3778 69.1656 -91.6292 70.4638 -93.2815 70.4638C-94.9338 70.4638 -96.1852 69.1656 -96.1852 67.6717C-96.1852 66.1777 -94.9338 64.8795 -93.2815 64.8795C-91.6292 64.8795 -90.3778 66.1777 -90.3778 67.6717ZM-93.2815 75.3189C-89.0451 75.3189 -85.5227 71.9432 -85.5227 67.6717C-85.5227 63.4001 -89.0451 60.0244 -93.2815 60.0244C-97.5179 60.0244 -101.04 63.4001 -101.04 67.6717C-101.04 71.9432 -97.5179 75.3189 -93.2815 75.3189ZM65.9938 67.6717C65.9938 69.1656 64.7424 70.4638 63.0901 70.4638C61.4378 70.4638 60.1864 69.1656 60.1864 67.6717C60.1864 66.1777 61.4378 64.8795 63.0901 64.8795C64.7424 64.8795 65.9938 66.1777 65.9938 67.6717ZM63.0901 75.3189C67.3265 75.3189 70.8488 71.9432 70.8488 67.6717C70.8488 63.4001 67.3265 60.0244 63.0901 60.0244C58.8537 60.0244 55.3314 63.4001 55.3314 67.6717C55.3314 71.9432 58.8537 75.3189 63.0901 75.3189Z" fill="#F1F1E8" stroke="#AC4BFF" stroke-width="4.85507"/>
</g>
<defs>
<clipPath id="clip0_2018_91288">
<rect width="134" height="134" rx="17.4783" fill="white"/>
</clipPath>
</defs>
</svg>
